<?xml version="1.0" standalone="no"?>
<!DOCTYPE svg PUBLIC "-//W3C//DTD SVG 20010904//EN"
 "http://www.w3.org/TR/2001/REC-SVG-20010904/DTD/svg10.dtd">
<svg version="1.0" xmlns="http://www.w3.org/2000/svg"
 width="928.000000pt" height="1000.000000pt" viewBox="0 0 928.000000 1000.000000"
 preserveAspectRatio="xMidYMid meet">

<g transform="translate(0.000000,1000.000000) scale(0.100000,-0.100000)"
fill="#000000" stroke="none">
<path d="M5445 9645 c-62 -84 -182 -181 -261 -211 l-47 -18 -16 25 c-9 13 -32
42 -52 63 l-37 40 -7 -42 c-8 -52 -40 -100 -83 -125 -47 -28 -113 -42 -347
-77 -468 -70 -678 -129 -840 -239 -69 -47 -157 -147 -193 -220 -34 -68 -37
-84 -40 -172 l-4 -97 -51 5 c-70 7 -122 -9 -189 -57 -86 -61 -178 -215 -178
-296 0 -14 -16 -38 -39 -59 -78 -72 -104 -187 -77 -341 19 -111 116 -483 170
-651 6 -19 1 -23 -51 -38 -79 -23 -130 -53 -154 -91 -26 -42 -43 -216 -34
-350 l7 -100 -114 -43 c-174 -66 -412 -186 -447 -226 -76 -87 -66 -231 24
-349 31 -41 29 -56 -45 -265 -58 -166 -65 -233 -29 -304 12 -23 28 -49 36 -59
17 -19 15 -20 -57 -43 -68 -22 -180 -75 -181 -87 -1 -4 -3 -12 -4 -18 -1 -5
-3 -14 -4 -20 0 -5 -7 -10 -13 -10 -21 0 -207 -93 -279 -138 -81 -51 -148
-122 -184 -192 -44 -86 -110 -266 -144 -390 -24 -86 -46 -137 -86 -205 -58
-98 -71 -137 -109 -350 -62 -338 -101 -647 -146 -1135 -17 -184 -37 -398 -45
-475 -8 -77 -15 -172 -15 -211 l0 -71 -38 -7 c-55 -8 -182 -76 -206 -109 -16
-22 -20 -43 -20 -110 0 -101 27 -171 71 -188 32 -12 36 -11 153 24 47 13 104
28 127 32 l43 7 0 -36 c0 -35 -1 -36 -39 -36 -22 0 -106 -23 -188 -50 -334
-114 -594 -170 -900 -196 l-83 -7 0 -239 c0 -182 3 -240 13 -243 10 -3 82 -12
124 -14 6 -1 13 -13 15 -27 4 -35 31 -53 55 -38 17 10 18 6 15 -62 l-4 -74
4180 0 4180 0 7 27 c3 14 3 54 0 89 -6 55 -5 63 11 68 20 6 622 66 661 66 l23
0 0 204 0 203 -52 6 c-127 15 -253 29 -389 42 -203 21 -1163 95 -1226 95 -30
0 -53 5 -53 10 0 6 11 37 24 69 41 95 285 796 411 1176 13 39 51 149 84 245
85 241 255 796 267 869 5 30 1 43 -18 65 -22 26 -32 29 -119 37 -224 19 -259
20 -1180 35 l-366 6 -41 87 c-23 47 -54 100 -68 116 -23 27 -24 27 -13 5 7
-14 22 -38 34 -55 19 -28 65 -131 65 -148 0 -4 -18 -7 -40 -7 -38 0 -39 2 -45
38 -9 55 -37 184 -43 201 -4 10 -1 12 8 6 10 -6 11 -4 5 11 -5 10 -38 109 -75
219 -70 212 -93 263 -136 314 -50 60 -240 176 -369 227 -38 15 -71 28 -73 29
-2 2 4 33 12 71 19 82 46 289 46 345 0 65 -64 181 -171 309 -27 32 -49 62 -49
65 0 3 18 43 39 88 69 143 83 197 80 314 l-3 102 40 31 c109 86 193 265 194
412 0 27 5 38 18 43 33 10 53 84 36 129 -3 8 -21 18 -38 22 -24 4 -51 25 -99
79 l-66 73 29 68 c36 88 55 209 41 261 -6 21 -11 47 -11 57 0 20 0 20 14 1 13
-19 15 -18 29 15 9 19 16 29 16 22 1 -7 -9 -33 -20 -57 -12 -25 -19 -48 -16
-51 10 -10 55 62 78 126 20 58 23 83 23 232 1 121 -2 170 -11 179 -7 7 -13 28
-13 45 0 18 -4 44 -10 58 -9 24 -5 29 48 65 136 93 219 233 256 431 20 101 20
156 3 163 -7 3 -25 3 -39 0 -25 -5 -26 -2 -42 69 -27 119 -113 278 -151 278
-7 0 -21 -24 -30 -52 -23 -70 -59 -132 -88 -151 -31 -20 -37 -14 -37 38 0 113
-90 317 -191 430 -34 39 -66 72 -71 73 -23 10 -2 -32 53 -103 67 -88 138 -220
163 -304 20 -67 20 -166 0 -206 -8 -16 -13 -23 -10 -15 2 8 0 60 -5 114 -7 87
-13 109 -49 179 -39 77 -144 225 -165 233 -5 2 -11 33 -12 69 -2 52 -11 82
-46 157 -44 94 -126 228 -139 228 -4 0 -32 -34 -63 -75z m129 -73 c58 -115 77
-181 74 -247 -2 -45 -7 -60 -18 -60 -8 0 -15 5 -16 10 -2 42 -20 131 -36 185
-20 64 -74 180 -88 190 -4 3 -3 16 2 29 l9 25 19 -32 c11 -18 35 -63 54 -100z
m-488 -113 c15 -30 17 -97 4 -139 -8 -27 -8 -28 -34 54 -9 27 -16 70 -16 94 0
39 2 43 16 31 8 -7 22 -25 30 -40z m84 -58 c-25 -14 -37 -16 -42 -8 -5 8 3 14
20 18 50 12 57 8 22 -10z m-301 -95 c-10 -10 -110 -40 -169 -51 -64 -12 -236
-46 -440 -86 -371 -73 -566 -179 -664 -364 -27 -51 -26 -25 1 30 52 104 161
201 298 266 144 68 421 132 715 165 74 8 158 21 185 28 53 14 81 19 74 12z
m793 -278 c-12 -18 -47 -58 -78 -88 l-57 -55 54 65 c30 36 63 77 74 92 27 36
32 27 7 -14z m526 -106 c36 -68 82 -203 82 -239 0 -7 -6 -13 -13 -13 -8 0 -14
14 -15 36 -4 49 -27 116 -73 204 -41 80 -45 90 -30 90 5 0 27 -35 49 -78z
m-366 13 c9 -46 -2 -75 -28 -75 -20 0 -24 5 -24 28 0 28 24 72 39 72 5 0 11
-11 13 -25z m-1702 -3 c0 -19 -47 -52 -74 -52 -25 0 -19 26 10 49 33 26 64 27
64 3z m-144 -79 c-10 -10 -19 5 -10 18 6 11 8 11 12 0 2 -7 1 -15 -2 -18z
m1330 -58 c8 -21 -14 -45 -61 -66 -51 -24 -65 -24 -65 -1 0 21 21 42 65 65 38
20 54 21 61 2z m1047 -172 c-15 -151 -80 -325 -147 -398 -33 -35 -35 -36 -16
-8 29 44 75 149 90 201 13 52 41 204 37 208 -2 2 -21 -3 -42 -11 -52 -19 -181
-18 -220 0 -28 14 -26 14 40 9 75 -5 160 7 203 30 51 27 60 21 55 -31z m-383
-268 c0 -16 -38 -45 -58 -45 -22 0 -9 43 17 57 27 13 41 9 41 -12z m-1250
-237 c19 -9 71 -22 115 -28 44 -7 85 -16 90 -20 6 -4 49 -17 96 -29 85 -21
213 -29 359 -22 62 2 181 -21 270 -54 19 -7 54 -18 77 -24 33 -9 48 -21 76
-64 19 -28 37 -65 40 -82 3 -16 15 -55 26 -86 25 -70 44 -258 36 -364 -8 -103
-35 -255 -45 -255 -4 0 -9 26 -12 58 -9 121 -74 198 -204 241 -82 27 -239 40
-272 22 -40 -22 -80 -138 -62 -185 7 -21 -34 -89 -129 -209 -21 -27 -44 -65
-50 -85 l-13 -37 -130 2 -131 2 -17 48 c-9 27 -23 60 -30 73 -59 113 -227 231
-369 261 -32 6 -104 9 -171 7 -96 -4 -126 -9 -185 -33 -75 -30 -161 -81 -211
-125 -28 -24 -42 -28 -130 -34 -55 -4 -114 -10 -133 -13 l-34 -6 7 54 c10 77
48 236 53 222 3 -8 24 9 51 38 63 69 74 87 66 101 -4 6 -3 8 4 4 6 -3 13 3 17
14 3 11 11 20 16 20 6 0 8 4 5 9 -3 5 3 19 13 32 55 71 137 302 129 361 -4 26
4 37 61 89 87 79 109 90 200 95 42 2 114 7 161 11 142 13 320 8 360 -9z m1325
-177 c3 -6 -10 -7 -32 -4 -50 8 -55 13 -10 13 20 0 38 -4 42 -9z m16 -72 c13
-26 7 -24 -22 7 -17 19 -19 23 -6 18 10 -3 22 -15 28 -25z m-16 -63 c20 -35
25 -55 24 -107 l-1 -64 -9 59 c-8 58 -42 128 -83 175 l-21 25 32 -23 c18 -12
44 -42 58 -65z m-100 -568 c-10 -38 -19 -67 -22 -64 -2 2 0 21 6 43 6 21 11
55 11 75 0 20 3 45 8 55 16 39 13 -40 -3 -109z m-237 -52 c45 -16 106 -55 99
-62 -2 -2 -21 2 -43 9 -97 34 -279 27 -391 -14 -29 -11 -58 -17 -64 -13 -7 4
-9 3 -6 -3 6 -9 -41 -38 -49 -30 -2 1 15 30 36 62 31 47 47 61 72 67 61 12
300 2 346 -16z m-1288 -14 c30 -8 77 -23 104 -35 45 -19 47 -21 26 -29 -14 -5
-27 -5 -34 2 -5 5 -18 10 -29 10 -10 0 -16 3 -14 8 3 4 -7 8 -21 8 -15 1 -38
4 -52 8 -33 9 -151 29 -170 28 -8 0 -35 -4 -60 -8 -25 -4 -42 -4 -38 0 3 4 21
10 40 13 18 3 35 7 38 10 9 9 156 -1 210 -15z m-1098 -100 c31 -32 73 -85 94
-118 l39 -59 -3 -188 c-2 -171 3 -224 25 -285 6 -16 6 -16 -10 0 -9 9 -17 27
-17 39 0 12 -3 20 -6 17 -3 -4 -2 -27 2 -53 5 -34 9 -43 16 -34 7 10 8 6 4
-13 -8 -34 3 -66 15 -46 7 10 9 9 9 -4 0 -9 -6 -19 -12 -21 -7 -3 -4 -6 7 -7
l20 -1 -20 -9 c-17 -7 -16 -9 10 -10 l30 -2 -30 -9 c-16 -5 -38 -7 -47 -5 -10
2 -18 1 -18 -4 0 -14 -139 -23 -155 -10 -8 6 -19 9 -24 5 -14 -8 -62 25 -54
38 3 5 1 7 -5 3 -6 -3 -36 23 -69 60 -32 37 -73 83 -90 103 -18 20 -44 58 -58
85 -24 47 -25 59 -25 207 0 161 11 246 36 286 28 44 146 91 230 92 49 1 53 -1
106 -57z m1226 24 c29 0 48 -3 41 -6 -8 -6 -8 -10 2 -16 7 -4 14 -3 17 4 5 17
74 -34 101 -76 58 -88 69 -222 27 -337 -74 -205 -245 -306 -465 -275 -88 12
-159 42 -221 95 -90 76 -121 162 -119 337 2 96 3 111 9 68 18 -148 80 -202
253 -220 121 -13 284 -13 292 0 4 6 -29 10 -92 10 l-98 0 32 20 c62 37 97 151
73 238 -6 26 -28 62 -52 88 -23 24 -38 47 -35 51 9 9 97 -26 133 -54 38 -29
79 -88 111 -163 l24 -55 -5 54 c-3 33 -17 73 -36 107 -16 30 -29 57 -28 61 5
17 -23 51 -47 57 -14 4 -25 11 -25 16 0 6 11 7 28 3 15 -5 51 -8 80 -7z m-563
-42 c-9 -14 -23 -42 -31 -62 -12 -32 -13 -33 -8 -7 6 30 41 95 51 95 3 0 -2
-12 -12 -26z m88 -17 c-69 -75 -80 -183 -28 -282 28 -53 20 -57 -29 -15 -100
89 -74 260 49 324 48 25 50 19 8 -27z m1707 3 c19 -7 39 -16 43 -20 4 -4 -5
-40 -21 -81 -82 -205 -87 -259 -42 -446 17 -69 30 -132 30 -140 0 -8 -26 -26
-57 -41 -52 -24 -70 -27 -163 -27 -93 0 -112 3 -162 27 -130 61 -215 189 -226
340 -3 54 -1 86 8 103 7 13 10 31 6 40 -3 9 -2 13 4 10 6 -4 10 6 10 21 0 33
38 100 74 131 29 26 45 14 16 -12 -28 -25 -54 -111 -54 -175 1 -60 40 -152 71
-168 31 -16 140 -23 229 -16 l86 7 27 56 c22 48 26 69 26 147 -1 84 -3 96 -30
140 -20 31 -46 56 -75 72 -40 21 -54 23 -125 19 -80 -5 -80 1 0 24 43 12 283
4 325 -11z m155 -50 c21 -22 37 -40 34 -40 -3 0 -23 18 -44 40 -21 22 -37 40
-34 40 3 0 23 -18 44 -40z m-43 -17 c14 -16 33 -41 41 -58 l15 -30 -70 3 c-52
3 -68 7 -64 17 2 7 10 31 17 54 14 48 26 51 61 14z m-296 -32 c17 -11 41 -40
54 -66 19 -39 22 -57 16 -108 -3 -34 -14 -83 -23 -109 -17 -47 -18 -48 -59
-48 -23 0 -51 -3 -61 -7 -14 -5 -12 1 9 25 54 65 64 169 22 248 -14 27 -35 57
-47 66 -22 17 -22 18 18 18 22 0 54 -9 71 -19z m-1782 -23 c3 -13 7 -59 10
-104 11 -149 56 -272 128 -350 21 -22 36 -43 33 -46 -3 -3 5 -13 17 -24 18
-15 20 -16 9 -1 -19 25 -5 21 34 -9 19 -14 66 -37 105 -50 58 -21 90 -25 178
-25 173 0 277 44 384 159 51 57 122 188 134 251 4 18 22 45 42 62 34 30 39 31
99 26 81 -6 93 -16 93 -81 1 -73 15 -128 60 -224 75 -160 161 -244 293 -284
97 -29 228 -23 311 15 l58 27 -4 -103 c-3 -60 -12 -123 -22 -152 -53 -151
-179 -358 -310 -507 -116 -131 -296 -302 -355 -336 -109 -62 -314 -69 -489
-17 -60 18 -88 31 -80 37 9 5 3 8 -16 8 -28 0 -106 39 -134 67 -7 7 -20 13
-29 13 -13 0 -13 3 -3 16 8 8 9 14 4 13 -22 -4 -34 2 -34 17 0 8 -5 12 -11 9
-7 -5 -4 -14 7 -26 23 -25 5 -24 -26 2 -14 11 -20 18 -13 15 8 -4 11 3 9 21
-1 19 -7 28 -18 27 -11 -1 -14 4 -11 14 5 12 0 14 -25 10 -31 -4 -45 6 -19 15
6 2 -3 4 -21 4 -24 0 -31 -4 -28 -14 4 -8 1 -11 -5 -8 -6 4 -8 14 -5 22 5 11
1 14 -14 10 -10 -3 -18 -2 -17 2 4 13 -55 61 -67 54 -6 -4 -5 0 2 9 15 19 3
31 -18 18 -11 -7 -21 -2 -37 17 -13 14 -20 29 -17 34 3 5 -3 6 -13 2 -17 -6
-17 -5 1 15 11 12 17 22 15 23 -2 0 -20 2 -38 5 -19 2 -38 9 -42 15 -3 6 -9
10 -13 9 -3 0 -14 4 -24 10 -14 9 -13 10 8 4 23 -6 23 -6 7 10 -9 10 -22 14
-28 10 -18 -11 -163 145 -197 213 -17 33 -47 112 -67 174 -20 63 -45 141 -56
174 -10 33 -19 68 -19 77 0 9 -8 22 -17 27 -10 6 -14 11 -10 11 4 0 21 -10 36
-21 42 -31 49 -20 38 53 -11 74 -15 535 -5 561 6 15 22 17 122 17 112 0 116
-1 120 -22z m2226 -59 c0 -9 -6 -19 -14 -22 -9 -4 -13 2 -13 18 0 13 -11 38
-24 57 l-23 33 37 -35 c20 -19 37 -42 37 -51z m-80 -4 c0 -8 -2 -15 -4 -15 -2
0 -6 7 -10 15 -3 8 -1 15 4 15 6 0 10 -7 10 -15z m19 -105 c1 -64 -23 -168
-53 -229 -31 -65 -107 -165 -116 -154 -15 18 -50 223 -49 288 2 113 5 119 74
128 114 14 125 17 126 35 1 37 18 -23 18 -68z m-1874 8 c8 -5 13 -13 10 -19
-7 -10 -37 17 -54 48 -18 35 -13 41 8 9 11 -16 27 -33 36 -38z m1924 -48 c-5
-41 -19 -104 -30 -140 -20 -61 -64 -150 -74 -150 -10 0 -4 19 10 34 9 8 16 19
17 23 1 4 9 26 19 48 21 47 50 185 42 197 -8 15 7 82 17 72 5 -5 5 -41 -1 -84z
m-1739 40 c-28 -25 -43 -30 -85 -30 -27 0 -56 4 -63 8 -7 5 14 6 45 4 50 -3
63 0 93 21 48 34 52 33 10 -3z m-1345 -217 c9 -20 27 -52 41 -70 21 -28 23
-37 13 -49 -7 -8 -8 -14 -2 -12 6 2 20 -8 33 -22 l22 -25 -22 35 -22 35 26
-28 26 -28 -22 -28 c-13 -16 -27 -26 -32 -23 -5 3 -6 0 -2 -6 4 -6 -3 -30 -14
-52 -32 -62 -44 -189 -33 -328 9 -101 15 -126 43 -182 57 -113 169 -299 287
-477 133 -201 201 -329 239 -453 15 -51 9 -65 -15 -32 -9 13 -34 45 -56 71
-60 71 -76 91 -120 146 -22 27 -44 55 -50 61 -5 6 -64 74 -130 150 -66 76
-231 248 -367 383 -283 281 -385 398 -429 488 -27 54 -31 69 -25 112 11 83 24
108 75 140 26 17 65 37 86 45 22 8 126 53 230 99 105 47 193 85 197 86 4 1 15
-16 23 -36z m2949 -154 c-16 -17 -38 -35 -49 -41 -11 -6 0 8 25 30 53 49 65
54 24 11z m-124 -89 c-19 -11 -39 -19 -45 -19 -5 0 6 8 25 19 19 11 40 19 45
19 6 0 -6 -8 -25 -19z m-70 -30 c-8 -5 -22 -9 -30 -9 -10 0 -8 3 5 9 27 12 43
12 25 0z m-87 -17 c-7 -2 -19 -2 -25 0 -7 3 -2 5 12 5 14 0 19 -2 13 -5z
m-2470 -379 c-3 -8 -1 -14 5 -14 6 0 12 5 14 11 2 6 23 -7 47 -30 23 -22 46
-41 51 -41 4 0 13 -13 20 -30 7 -16 16 -28 20 -25 10 6 52 -93 45 -106 -4 -5
-1 -8 7 -7 7 2 12 -5 12 -14 -1 -10 2 -16 6 -13 11 7 20 -22 14 -42 -4 -13 -3
-14 3 -5 12 16 87 -153 80 -180 -4 -13 -1 -18 8 -15 20 8 50 -79 47 -137 -2
-35 -9 -54 -25 -68 -12 -11 -15 -16 -7 -12 13 7 13 6 0 -11 -14 -17 -13 -18 2
-12 12 4 15 2 11 -9 -6 -16 -23 -19 -23 -4 0 6 1 11 3 13 6 9 -35 38 -47 34
-18 -7 -37 15 -66 75 -13 26 -28 44 -33 41 -6 -4 -7 -1 -2 6 4 8 -1 18 -14 27
-12 9 -21 26 -21 41 0 15 -3 23 -6 20 -18 -18 -86 119 -140 281 -27 83 -34
119 -34 184 0 69 2 79 14 68 8 -6 12 -18 9 -26z m-705 -24 c-7 -10 -14 -17
-17 -15 -4 4 18 35 25 35 2 0 -1 -9 -8 -20z m9 -42 c-3 -7 -5 -2 -5 12 0 14 2
19 5 13 2 -7 2 -19 0 -25z m-35 -10 c-7 -7 -12 -8 -12 -2 0 14 12 26 19 19 2
-3 -1 -11 -7 -17z m24 -45 c-11 -11 -19 6 -11 24 8 17 8 17 12 0 3 -10 2 -21
-1 -24z m1255 0 c13 -14 17 -22 9 -18 -9 5 -7 -1 5 -15 l20 -23 -20 7 c-15 5
-17 4 -8 -5 15 -15 33 -3 27 19 -3 9 2 6 10 -8 8 -14 15 -21 16 -16 0 6 13 -3
30 -19 16 -16 28 -31 25 -33 -3 -3 3 -11 13 -18 16 -12 16 -12 -2 -11 -13 1
-21 -7 -27 -25 -6 -23 -4 -28 15 -31 14 -3 10 -5 -11 -6 -32 -1 -32 -2 -15
-19 11 -12 20 -14 24 -8 4 6 8 -8 8 -31 0 -34 4 -43 18 -44 12 0 11 -3 -6 -10
-13 -5 -28 -7 -33 -3 -14 8 -11 -6 5 -21 7 -8 16 -11 20 -8 3 4 6 1 6 -5 0 -7
-9 -12 -19 -12 -15 0 -20 -9 -23 -47 -2 -27 0 -51 6 -55 6 -4 3 -15 -9 -29
-11 -12 -14 -19 -7 -15 20 12 14 -8 -8 -24 -20 -15 -27 -40 -11 -40 5 0 11
-11 13 -25 5 -24 3 -26 -34 -29 -26 -2 -32 -66 -7 -66 12 0 11 17 -1 25 -6 4
-8 11 -4 16 9 15 24 0 24 -25 0 -13 -7 -29 -15 -36 -12 -10 -16 -9 -22 6 -3
11 -9 21 -12 24 -14 12 -53 72 -42 66 13 -8 14 -4 5 18 -3 9 -10 13 -15 10
-12 -7 -111 196 -104 214 2 7 0 10 -5 7 -20 -12 -9 10 19 40 41 42 101 136
101 157 0 10 5 18 10 18 6 0 10 -14 10 -32 0 -17 2 -29 5 -27 2 3 1 58 -3 122
-4 64 -7 117 -6 117 0 0 11 -12 25 -27z m2082 -101 c88 -126 137 -222 137
-273 0 -91 -72 -399 -129 -554 -66 -178 -102 -252 -189 -390 -76 -119 -73
-118 -94 -28 -15 64 -17 86 -8 123 15 61 2 96 -40 105 -19 4 -36 2 -46 -6 -25
-21 -25 -4 1 47 70 135 173 453 201 619 14 76 14 107 4 203 -7 62 -10 115 -7
119 9 9 40 -107 48 -182 l8 -70 -4 85 c-2 47 -11 108 -20 136 -12 37 -14 57
-7 69 9 17 11 15 26 -11 10 -16 14 -20 10 -9 -4 11 -7 28 -8 37 0 9 -5 14 -11
10 -6 -4 -6 -1 1 9 5 8 18 26 27 42 10 15 19 27 21 27 2 0 37 -49 79 -108z
m-3390 48 c3 -11 1 -18 -4 -14 -5 3 -9 12 -9 20 0 20 7 17 13 -6z m27 8 c0 6
5 12 10 12 6 0 10 -7 10 -16 0 -20 -32 -15 -37 6 -4 13 -3 13 6 0 7 -10 11
-11 11 -2z m-9 -51 c-10 -9 -11 -8 -5 6 3 10 9 15 12 12 3 -3 0 -11 -7 -18z
m-58 -110 c-6 -89 -15 -107 -18 -39 -2 37 14 137 21 130 2 -2 1 -43 -3 -91z
m50 3 c-7 -49 -27 -80 -37 -55 -3 8 1 18 8 22 16 10 27 61 15 69 -5 3 -9 -4
-9 -15 0 -11 -5 -23 -10 -26 -7 -5 -8 3 -3 22 4 15 7 38 8 50 l0 23 17 -23
c14 -17 16 -32 11 -67z m17 70 c0 -5 -4 -10 -10 -10 -5 0 -10 5 -10 10 0 6 5
10 10 10 6 0 10 -4 10 -10z m1447 -34 c-3 -8 1 -20 9 -26 16 -15 19 -30 3 -30
-5 0 -7 5 -3 12 5 7 2 9 -8 6 -10 -4 -14 0 -12 15 1 12 3 25 3 30 1 4 4 7 7 7
3 0 4 -6 1 -14z m117 -3 c-17 -12 -34 -9 -34 7 0 4 11 7 25 6 22 -1 23 -2 9
-13z m-1592 -135 c-8 -8 -9 -4 -5 13 4 13 8 18 11 10 2 -7 -1 -18 -6 -23z
m3098 -22 c0 -2 -8 -10 -17 -17 -16 -13 -17 -12 -4 4 13 16 21 21 21 13z m-14
-117 c4 -42 3 -51 -6 -39 -9 12 -10 9 -6 -15 4 -16 2 -52 -3 -80 -11 -60 -40
-138 -41 -110 0 14 -3 16 -12 7 -9 -9 -9 -18 0 -37 15 -32 15 -47 1 -22 -14
23 -29 12 -29 -21 0 -15 -5 -34 -11 -42 -8 -11 -9 17 -5 100 3 63 6 139 6 168
0 45 3 52 20 52 23 0 25 12 9 42 -8 15 -8 23 1 32 8 8 10 7 5 -4 -4 -11 2 -15
21 -16 24 -2 25 -1 8 17 -19 21 -6 26 15 7 11 -11 13 -9 8 11 -4 15 -2 20 4
14 5 -5 12 -34 15 -64z m11 39 c-3 -8 -6 -5 -6 6 -1 11 2 17 5 13 3 -3 4 -12
1 -19z m-1227 -69 c0 -6 -7 -3 -16 5 -8 9 -21 16 -29 16 -7 0 -23 9 -36 19
-19 16 -14 15 29 -5 28 -14 52 -29 52 -35z m10 -79 c0 -5 -5 -10 -11 -10 -5 0
-7 5 -4 10 3 6 8 10 11 10 2 0 4 -4 4 -10z m-711 -45 c0 -5 -4 -3 -10 5 -9 12
-10 11 -6 -7 3 -13 1 -23 -4 -23 -11 0 -11 15 -2 49 6 23 7 23 14 5 4 -10 8
-23 8 -29z m826 35 c8 -13 -5 -13 -25 0 -13 8 -13 10 2 10 9 0 20 -4 23 -10z
m-58 -6 c-3 -3 -12 -4 -19 -1 -8 3 -5 6 6 6 11 1 17 -2 13 -5z m-2213 -46 c-5
-8 -2 -9 9 -5 10 3 17 3 17 -2 0 -5 -37 -27 -82 -51 -117 -60 -129 -77 -80
-106 64 -39 198 -192 259 -295 72 -122 91 -164 144 -321 49 -149 50 -181 1
-62 -36 86 -73 150 -97 166 -18 13 -25 9 -16 -9 5 -10 14 -38 20 -63 6 -25 26
-106 45 -180 74 -295 104 -438 127 -605 16 -120 46 -282 54 -296 6 -9 4 -11
-8 -6 -8 3 -33 9 -54 13 -48 8 -444 118 -498 138 -22 8 -57 21 -77 30 -45 19
-51 3 -9 -19 16 -8 46 -42 66 -75 20 -33 48 -74 62 -90 13 -16 22 -34 18 -40
-4 -6 -2 -9 3 -8 10 3 83 -98 86 -119 1 -7 12 -22 24 -33 38 -36 24 -33 -21 4
-23 19 -55 38 -71 42 -29 7 -123 91 -118 106 1 4 -4 7 -10 6 -7 -2 -12 3 -10
10 1 6 -2 11 -6 10 -7 -3 -55 50 -123 134 -49 61 -127 183 -159 248 -17 36
-35 73 -41 82 -5 10 -9 35 -9 57 0 22 -5 52 -11 68 -6 15 -11 69 -11 118 -1
79 6 112 50 265 57 197 125 396 153 452 27 52 48 61 143 56 83 -4 131 -20 205
-69 l35 -23 -19 32 c-11 18 -49 63 -86 100 -71 72 -88 87 -104 87 -5 1 -35 5
-66 9 -41 6 -64 4 -92 -7 -43 -18 -56 -7 -33 27 15 24 132 110 211 156 l40 23
-36 -39 c-20 -21 -42 -50 -49 -64 -7 -14 5 -5 30 23 23 26 77 68 119 92 84 49
85 50 75 33z m1691 -47 c0 -22 -2 -35 -6 -30 -3 5 -13 7 -21 4 -12 -5 -16 0
-15 22 2 28 13 43 32 43 6 0 10 -18 10 -39z m740 11 c-3 -3 -11 0 -18 7 -9 10
-8 11 6 5 10 -3 15 -9 12 -12z m-697 -37 c-2 -23 -28 -46 -28 -25 0 10 22 50
27 50 2 0 2 -11 1 -25z m-58 -30 c0 -8 -7 -15 -15 -15 -8 0 -15 -4 -15 -10 0
-5 -5 -10 -10 -10 -6 0 -3 11 6 25 18 28 34 33 34 10z m31 -42 c-12 -20 -14
-14 -5 12 4 9 9 14 11 11 3 -2 0 -13 -6 -23z m-26 -3 c3 -6 -4 -10 -17 -10
-18 0 -20 2 -8 10 19 12 18 12 25 0z m10 -30 c3 -6 -1 -7 -9 -4 -18 7 -21 14
-7 14 6 0 13 -4 16 -10z m740 -11 c8 -24 1 -34 -19 -26 -9 4 -12 14 -9 26 7
27 20 27 28 0z m1443 -30 c152 -81 297 -183 285 -202 -3 -6 -1 -7 5 -3 16 10
65 -70 101 -164 58 -150 181 -583 170 -595 -5 -4 -536 14 -564 19 -19 3 -19 4
3 11 12 4 23 12 23 19 2 21 5 31 17 59 7 16 12 34 12 40 0 7 4 6 10 -3 8 -11
9 -8 4 12 -4 20 -2 29 9 33 8 4 15 16 15 28 0 12 39 121 86 242 82 213 100
271 56 184 -26 -50 -90 -200 -90 -210 0 -4 -14 -38 -32 -76 -17 -37 -31 -71
-30 -75 1 -4 -11 -36 -26 -70 -16 -35 -34 -78 -42 -96 -9 -24 -15 -30 -21 -20
-6 8 -9 2 -9 -20 0 -20 -6 -35 -15 -38 -8 -4 -12 -10 -9 -15 3 -5 -11 -9 -30
-9 -20 0 -36 4 -36 9 0 5 9 69 20 143 27 180 27 429 0 644 -11 87 -22 169 -24
182 -3 12 0 22 6 22 6 0 54 -23 106 -51z m-2078 11 c0 -5 -5 -10 -11 -10 -5 0
-7 5 -4 10 3 6 8 10 11 10 2 0 4 -4 4 -10z m630 -35 c0 -8 -4 -15 -10 -15 -5
0 -10 7 -10 15 0 8 5 15 10 15 6 0 10 -7 10 -15z m-18 -70 c-2 -25 -7 -43 -11
-41 -3 2 -7 -9 -8 -25 -3 -48 -6 -58 -15 -53 -5 3 -6 9 -3 14 3 4 -11 18 -30
30 -19 12 -35 28 -35 36 0 9 -4 12 -10 9 -5 -3 -10 -2 -10 4 0 5 6 12 13 14 9
4 8 8 -3 17 -11 9 -12 13 -2 17 6 2 12 9 12 14 0 6 -4 7 -10 4 -5 -3 -10 -2
-10 3 0 6 7 13 16 16 8 3 12 2 9 -3 -3 -5 -1 -12 5 -16 5 -3 10 -1 10 6 0 8 6
6 18 -4 25 -23 30 -21 24 9 -5 26 -4 26 19 11 21 -14 24 -23 21 -62z m-662 44
c0 11 3 11 15 1 8 -7 15 -21 15 -31 0 -21 14 -31 44 -33 11 -1 20 -7 19 -14
-2 -7 4 -12 12 -12 9 0 26 -9 38 -21 12 -12 33 -28 47 -37 14 -9 48 -33 75
-53 52 -39 201 -109 231 -109 9 0 43 -27 74 -60 31 -33 63 -60 71 -59 10 0 11
2 2 6 -21 8 -15 21 17 32 18 6 28 6 25 1 -9 -14 9 -12 23 2 6 6 14 10 16 7 5
-5 -85 -73 -139 -104 -34 -20 -35 -20 -87 -1 -72 25 -159 78 -239 148 -75 64
-232 255 -223 270 3 5 -3 12 -14 15 -13 3 -18 11 -15 19 3 8 0 14 -6 14 -5 0
-15 10 -21 23 -11 21 -10 21 4 3 10 -12 16 -15 16 -7z m817 -41 c-3 -8 -6 -5
-6 6 -1 11 2 17 5 13 3 -3 4 -12 1 -19z m-120 -50 c-3 -8 -6 -5 -6 6 -1 11 2
17 5 13 3 -3 4 -12 1 -19z m130 -25 c-3 -10 -5 -2 -5 17 0 19 2 27 5 18 2 -10
2 -26 0 -35z m-20 -15 c-3 -7 -5 -2 -5 12 0 14 2 19 5 13 2 -7 2 -19 0 -25z
m-1163 7 c32 -32 41 -96 40 -300 l0 -200 -48 -210 c-80 -353 -96 -450 -106
-625 -5 -91 -14 -181 -20 -200 -5 -19 -10 -36 -10 -37 0 -2 10 -3 21 -3 20 0
21 -4 16 -47 -4 -27 -11 -65 -17 -85 -10 -36 -12 -36 -29 -20 -10 9 -28 25
-39 34 -17 14 -22 29 -22 67 0 45 2 49 29 54 25 5 29 12 35 49 4 24 6 86 5
138 -2 157 2 273 11 315 5 22 10 67 11 100 1 33 8 89 15 125 8 36 30 139 50
230 30 137 37 192 41 325 5 136 3 166 -10 192 -37 71 -17 142 27 98z m942 -8
c14 5 20 -18 8 -30 -9 -8 -34 18 -33 35 0 9 2 9 5 1 3 -7 12 -9 20 -6z m116
-16 c8 11 8 10 4 -4 -3 -10 -6 -23 -6 -28 0 -5 -7 -9 -16 -9 -11 0 -14 -6 -9
-20 4 -11 2 -20 -4 -20 -6 0 -11 5 -12 10 -3 29 -2 47 5 69 8 22 9 23 18 6 9
-14 12 -15 20 -4z m-261 -42 c13 -26 7 -24 -22 7 -17 19 -19 23 -6 18 10 -3
22 -15 28 -25z m194 2 c3 -5 2 -12 -3 -15 -5 -3 -9 1 -9 9 0 17 3 19 12 6z
m183 -43 c-16 -48 -23 -52 -23 -13 0 18 3 31 8 28 4 -2 7 1 7 6 0 6 4 11 9 11
6 0 6 -13 -1 -32z m795 -39 c18 -28 -1 -87 -32 -104 -26 -13 -30 -13 -46 5
-21 23 -14 64 18 98 23 25 45 25 60 1z m-829 -40 c-2 -5 -12 -5 -20 -2 -13 5
-15 1 -9 -16 8 -25 -22 -42 -36 -20 -14 23 -10 32 7 14 20 -20 29 -13 15 12
-8 17 -6 19 19 19 16 0 27 -3 24 -7z m-143 -35 c23 -25 24 -26 5 -40 -11 -7
-20 -13 -21 -11 -1 1 -12 18 -25 37 -19 28 -20 32 -5 20 17 -14 18 -13 12 3
-9 25 6 21 34 -9z m985 -135 c16 -75 32 -374 21 -402 -4 -10 -13 -13 -26 -10
-20 5 -21 12 -21 182 0 110 -6 200 -14 241 -10 46 -11 69 -3 78 15 19 23 1 43
-89z m-89 50 c-3 -12 0 -19 9 -19 19 0 18 -26 -2 -34 -27 -10 -29 -7 -31 39
-2 36 1 43 13 38 9 -3 14 -13 11 -24z m-2910 -101 c-3 -8 -6 -5 -6 6 -1 11 2
17 5 13 3 -3 4 -12 1 -19z m-1050 -191 c7 -304 184 -651 483 -945 115 -114
154 -149 168 -154 4 -2 6 -7 4 -11 -1 -5 2 -6 7 -3 5 3 19 -2 32 -12 25 -19
141 -90 223 -137 37 -21 45 -30 35 -37 -11 -7 -9 -8 5 -4 11 4 40 -7 77 -30
32 -19 59 -37 59 -38 0 -2 -55 17 -122 41 -176 64 -370 128 -463 153 -151 41
-304 89 -335 105 -48 25 -70 70 -70 142 l0 61 98 -52 c53 -29 119 -65 145 -79
51 -29 96 -37 78 -14 -6 6 -38 46 -72 87 -81 98 -234 332 -292 445 -44 85 -90
207 -117 304 -9 32 -14 41 -21 30 -29 -46 8 110 43 179 17 34 31 62 32 62 1 0
2 -42 3 -93z m1046 48 c-7 -21 -13 -19 -13 6 0 11 4 18 10 14 5 -3 7 -12 3
-20z m-976 -17 c-3 -7 -5 -2 -5 12 0 14 2 19 5 13 2 -7 2 -19 0 -25z m2170
-105 c-2 -21 -4 -6 -4 32 0 39 2 55 4 38 2 -18 2 -50 0 -70z m-25 15 c-8 -8
-9 -4 -5 13 4 13 8 18 11 10 2 -7 -1 -18 -6 -23z m-20 -45 c8 -10 6 -13 -6
-13 -12 0 -16 9 -15 43 2 34 3 36 6 12 3 -16 9 -36 15 -42z m-1114 -13 c0 -22
-1 -22 -8 5 -4 17 -8 39 -8 50 0 16 2 15 8 -5 4 -14 8 -36 8 -50z m1054 -42
c-2 -11 1 -30 8 -43 7 -14 10 -37 7 -54 -4 -17 -2 -33 3 -36 15 -9 16 78 1
105 -11 21 -9 21 13 -5 26 -31 36 -88 16 -100 -16 -10 -12 -45 6 -45 12 0 15
7 12 25 -3 14 -1 28 3 31 5 3 9 -7 8 -23 -1 -30 -16 -86 -18 -65 -1 6 -6 12
-12 12 -6 0 -9 -6 -6 -13 3 -8 -1 -14 -9 -14 -8 0 -14 10 -14 22 0 23 -22 48
-46 51 -8 1 -14 -3 -14 -9 0 -5 -2 -8 -5 -5 -3 3 -1 16 4 29 5 13 10 18 10 12
1 -7 8 -13 17 -13 15 0 16 10 10 83 -4 45 -9 91 -12 102 -4 16 -2 15 9 -4 8
-13 12 -33 9 -43z m2443 -48 c182 -6 620 -14 975 -20 650 -9 1028 -19 1065
-26 11 -3 65 -7 119 -10 147 -10 151 -12 150 -66 -2 -51 -97 -365 -140 -465
-8 -17 -15 -43 -16 -57 -1 -14 -5 -26 -8 -26 -3 0 -6 -8 -7 -17 0 -22 -35
-116 -45 -123 -4 -3 -14 -24 -22 -45 -12 -33 -15 -35 -15 -15 0 14 6 36 14 50
12 22 11 27 -2 43 -15 15 -15 17 0 17 10 0 17 -6 17 -12 0 -9 4 -8 10 2 13 20
13 63 0 55 -6 -3 -7 1 -4 10 5 11 2 14 -10 9 -11 -4 -15 -14 -12 -30 3 -14 1
-22 -5 -19 -5 4 -6 11 -3 17 4 7 -2 8 -17 3 -21 -6 -22 -5 -8 6 11 10 14 21 9
39 -5 14 -8 19 -9 12 -1 -15 -71 -87 -71 -73 0 4 -7 8 -15 8 -8 0 -15 -6 -15
-14 0 -8 -10 -12 -25 -11 -14 1 -25 6 -25 11 0 4 -9 3 -20 -3 -16 -9 -20 -8
-20 6 0 13 -3 14 -13 5 -8 -6 -17 -9 -20 -6 -4 3 -5 2 -3 -1 3 -3 0 -12 -7
-19 -9 -10 -14 -9 -24 4 -10 14 -11 13 -6 -6 5 -21 2 -23 -35 -21 -23 1 -39 4
-37 8 2 4 -2 7 -10 7 -8 0 -15 -6 -15 -14 0 -17 -15 -17 -34 2 -8 8 -17 11
-20 6 -4 -5 -1 -11 6 -13 9 -3 8 -9 -4 -21 -16 -16 -17 -16 -21 5 -4 20 -4 20
-6 -4 0 -14 5 -29 12 -31 7 -4 6 -6 -4 -6 -9 -1 -20 6 -23 15 -8 20 -26 9 -26
-17 0 -10 -7 -19 -15 -19 -18 0 -19 11 -2 29 10 11 9 14 -1 18 -6 3 -10 9 -6
14 3 5 0 9 -5 9 -6 0 -11 -8 -12 -17 0 -12 -2 -13 -6 -5 -3 9 -12 5 -28 -13
-13 -14 -29 -25 -35 -25 -5 0 -10 -6 -10 -12 0 -9 -4 -8 -10 2 -8 13 -10 12
-10 -3 0 -10 -5 -15 -11 -12 -20 13 -57 -5 -67 -32 -8 -21 -11 -23 -11 -9 -1
18 -2 18 -21 1 -17 -15 -20 -16 -20 -3 0 9 -9 18 -19 21 -15 4 -19 0 -16 -15
3 -14 0 -18 -13 -14 -11 4 -24 -3 -37 -20 -18 -24 -64 -57 -52 -37 3 5 -7 7
-24 5 -18 -3 -28 -9 -26 -17 3 -6 -1 -12 -9 -12 -7 0 -11 4 -8 9 3 4 0 8 -7 8
-6 0 -9 -8 -6 -19 3 -14 0 -17 -14 -14 -10 3 -16 9 -13 14 3 5 0 9 -5 9 -6 0
-11 -4 -11 -8 0 -16 -40 -56 -41 -41 0 8 -4 6 -9 -6 -8 -18 -9 -18 -10 5 -1
23 -2 23 -10 5 -5 -11 -9 -14 -9 -7 -1 10 -5 9 -17 -3 -12 -11 -20 -13 -27 -6
-6 6 -16 11 -21 11 -6 0 -4 -5 4 -10 13 -8 13 -10 -2 -10 -9 0 -20 5 -23 10
-3 6 -12 10 -18 10 -7 0 -6 -4 3 -11 11 -8 5 -9 -27 -7 -24 2 -41 -1 -40 -7 1
-5 -6 -10 -15 -10 -9 0 -20 -4 -24 -8 -4 -4 -29 -7 -56 -7 -26 0 -48 -4 -48
-10 0 -5 -18 -10 -40 -10 -29 0 -40 -4 -40 -15 0 -12 -16 -15 -80 -15 -44 0
-80 -4 -80 -9 0 -5 -36 -12 -80 -16 -44 -4 -80 -11 -80 -16 0 -5 -18 -9 -40
-9 -22 0 -40 -4 -40 -10 0 -6 -100 -10 -281 -10 -257 0 -281 1 -275 16 8 22
-1 51 -19 58 -9 3 -12 0 -8 -10 6 -16 -32 -20 -42 -4 -10 17 -45 12 -39 -5 8
-20 -13 -19 -24 1 -6 11 -11 13 -16 5 -9 -14 -46 -15 -46 -1 0 6 -5 10 -11 10
-5 0 -7 -4 -4 -10 3 -5 1 -10 -4 -10 -6 0 -11 5 -11 10 0 6 -7 10 -15 10 -9 0
-15 10 -16 23 -1 18 -2 18 -6 4 -5 -18 -5 -18 -18 0 -12 16 -14 16 -20 2 -5
-14 -12 -15 -41 -6 -32 10 -41 26 -34 62 1 6 -4 5 -11 -2 -9 -9 -21 -4 -54 23
-40 32 -43 33 -48 14 -5 -18 -8 -17 -41 16 -20 20 -36 46 -36 58 -1 12 -17 33
-40 51 -23 18 -39 39 -40 51 0 12 -7 27 -15 34 -9 7 -13 15 -10 18 7 8 -36 52
-51 52 -6 0 -17 7 -24 15 -10 12 -10 15 4 15 27 0 17 24 -24 55 -21 17 -39 35
-40 40 -1 6 -19 24 -40 40 -21 17 -39 35 -40 40 -1 6 -19 24 -40 40 -21 17
-40 39 -41 50 0 11 -7 0 -14 -25 -7 -25 -13 -35 -14 -24 -2 33 11 84 19 79 3
-2 7 18 8 45 0 27 7 61 15 77 13 25 32 101 42 169 2 12 10 35 20 53 l16 32
-25 -16 c-13 -9 -29 -28 -34 -43 -16 -43 -35 -63 -51 -53 -22 14 14 123 53
163 l31 30 485 -6 c267 -4 634 -11 815 -16z m-2388 -112 c-3 -8 -6 -5 -6 6 -1
11 2 17 5 13 3 -3 4 -12 1 -19z m-78 -85 c0 15 6 27 12 27 6 0 8 -11 5 -27 -3
-16 -8 -61 -12 -101 -3 -40 -8 -71 -10 -69 -2 2 -6 49 -8 103 -2 58 -1 86 4
69 l8 -30 1 28z m78 -25 c-3 -7 -5 -2 -5 12 0 14 2 19 5 13 2 -7 2 -19 0 -25z
m-1120 -70 c-3 -7 -5 -2 -5 12 0 14 2 19 5 13 2 -7 2 -19 0 -25z m20 -90 c-2
-13 -4 -5 -4 17 -1 22 1 32 4 23 2 -10 2 -28 0 -40z m1990 10 c-3 -8 -6 -5 -6
6 -1 11 2 17 5 13 3 -3 4 -12 1 -19z m-10 -40 c-3 -8 -6 -5 -6 6 -1 11 2 17 5
13 3 -3 4 -12 1 -19z m-1960 -65 c-3 -10 -5 -4 -5 12 0 17 2 24 5 18 2 -7 2
-21 0 -30z m2100 -35 c-3 -8 -6 -5 -6 6 -1 11 2 17 5 13 3 -3 4 -12 1 -19z
m-2562 -53 c55 -18 161 -49 235 -70 74 -20 148 -43 165 -50 16 -8 33 -11 38
-8 5 3 6 -5 2 -18 -21 -68 -155 -297 -155 -266 0 10 -4 16 -8 13 -14 -8 -126
113 -266 287 -43 54 -95 111 -115 128 -21 19 -28 28 -16 24 11 -4 65 -22 120
-40z m1699 -111 c4 -77 27 -166 36 -139 5 14 9 4 14 -31 7 -57 50 -188 91
-279 15 -33 34 -80 42 -105 20 -58 132 -309 149 -335 17 -24 18 -39 3 -29 -8
4 -9 -1 -5 -17 6 -20 5 -21 -4 -6 -6 9 -9 21 -6 26 3 4 -9 30 -26 57 -17 27
-41 77 -54 111 -13 35 -37 87 -53 115 -40 71 -88 194 -117 297 -12 46 -27 87
-31 90 -11 8 -29 68 -43 149 -6 35 -14 70 -17 79 -5 12 -3 14 7 8 10 -6 11 -2
7 16 -20 73 -20 74 -8 63 7 -6 14 -38 15 -70z m-1234 52 c0 -3 -4 -8 -10 -11
-5 -3 -10 -1 -10 4 0 6 5 11 10 11 6 0 10 -2 10 -4z m5557 -128 c-3 -8 -6 -5
-6 6 -1 11 2 17 5 13 3 -3 4 -12 1 -19z m-4290 -30 c-3 -7 -5 -2 -5 12 0 14 2
19 5 13 2 -7 2 -19 0 -25z m4263 -8 c0 -5 -5 -10 -11 -10 -5 0 -7 5 -4 10 3 6
8 10 11 10 2 0 4 -4 4 -10z m-550 -72 c0 -11 -28 -10 -35 1 -3 6 4 9 15 8 11
-1 20 -5 20 -9z m-63 -30 c-3 -8 -6 -5 -6 6 -1 11 2 17 5 13 3 -3 4 -12 1 -19z
m616 -23 c-3 -9 -8 -14 -10 -11 -3 3 -2 9 2 15 9 16 15 13 8 -4z m-46 -117
c-3 -8 -6 -5 -6 6 -1 11 2 17 5 13 3 -3 4 -12 1 -19z m-4722 -28 c11 -18 -6
-50 -26 -50 -22 0 -34 22 -25 45 6 17 42 20 51 5z m4682 -62 c-3 -8 -6 -5 -6
6 -1 11 2 17 5 13 3 -3 4 -12 1 -19z m-4738 -60 c-48 -124 -82 -199 -86 -195
-2 3 11 43 30 88 19 46 40 101 46 122 7 20 17 37 22 37 5 0 -1 -24 -12 -52z
m-1131 -18 c46 -12 91 -25 100 -30 10 -4 46 -20 82 -35 127 -52 179 -78 174
-86 -2 -4 1 -11 7 -15 8 -4 9 -3 5 4 -10 17 2 15 32 -7 15 -10 34 -21 42 -24
8 -3 -23 -6 -70 -6 -106 -1 -199 -16 -218 -35 -13 -12 -8 -14 32 -14 25 1 46
4 46 7 0 14 302 0 420 -20 165 -28 307 -65 295 -77 -4 -4 -47 -12 -97 -18 -77
-10 -106 -19 -192 -63 -87 -44 -220 -123 -236 -141 -3 -3 -26 -22 -52 -43 -26
-21 -69 -66 -94 -100 -26 -34 -50 -65 -53 -69 -10 -12 -7 86 3 102 14 21 7
102 -10 120 -12 12 -14 5 -14 -59 0 -64 -2 -72 -15 -61 -9 8 -15 30 -15 56 0
40 -2 44 -25 44 -22 0 -25 -4 -25 -40 0 -29 -4 -40 -15 -40 -11 0 -15 11 -15
40 0 36 -2 40 -25 40 -20 0 -25 5 -25 25 0 25 -1 25 -80 25 l-80 0 0 30 c0 28
-2 30 -40 30 -22 0 -40 5 -40 10 0 6 -33 10 -80 10 -64 0 -80 3 -80 15 0 8 -7
15 -15 15 -11 0 -15 11 -15 40 0 27 5 43 15 46 8 4 15 11 15 16 0 6 -7 5 -15
-2 -24 -20 -31 -2 -7 19 35 30 25 33 -18 6 -22 -14 -40 -23 -40 -20 0 3 -9 1
-20 -5 -11 -6 -18 -15 -15 -21 7 -10 -8 -13 -18 -3 -7 8 17 34 32 34 5 0 24
12 41 26 55 46 293 116 384 113 21 -1 24 -3 11 -6 -44 -11 -37 -23 12 -21 28
2 49 6 47 10 -6 10 102 22 194 21 93 -1 103 12 15 20 -32 3 -107 10 -168 17
-66 7 -202 11 -341 8 l-231 -3 33 40 c41 49 87 88 117 97 42 13 259 -1 345
-22z m3303 -3 c-5 -5 -23 -4 -42 2 l-34 10 43 -2 c24 0 38 -5 33 -10z m167 2
c-17 -11 -68 -11 -68 0 0 4 18 8 41 8 26 0 36 -3 27 -8z m2352 -74 c-16 -47
-23 -40 -8 8 6 20 13 35 16 33 2 -3 -1 -21 -8 -41z m-31 -91 c-6 -21 -16 -43
-21 -49 -7 -7 -9 -7 -5 0 3 6 10 30 17 54 6 23 13 41 15 39 3 -2 0 -22 -6 -44z
m-45 -148 c-10 -31 -19 -54 -22 -52 -2 2 4 29 14 60 10 31 19 54 22 52 2 -2
-4 -29 -14 -60z m-4650 -81 c13 -9 43 -38 66 -66 52 -62 33 -54 -84 33 -43 33
-85 62 -92 65 -8 3 -14 9 -14 14 0 10 89 -23 124 -46z m-85 3 c56 -69 84 -94
157 -136 l85 -48 -78 -13 c-91 -15 -89 -14 -128 -30 -16 -7 -34 -14 -40 -15
-5 -1 -20 -8 -33 -15 -13 -7 -30 -10 -37 -7 -7 2 -21 -2 -32 -9 -23 -19 -81
-18 -168 0 -76 16 -225 63 -238 75 -13 11 107 114 175 150 34 18 82 39 107 46
62 17 217 18 230 2z m1019 -149 c2 -35 5 -66 8 -70 2 -4 -1 -31 -7 -60 -6 -30
-11 -60 -12 -66 0 -7 -4 -13 -8 -13 -5 0 -14 -18 -20 -40 -7 -22 -18 -40 -25
-40 -7 0 -11 6 -8 13 3 8 -3 13 -16 13 -11 0 -20 -4 -20 -8 0 -4 -13 6 -30 24
-16 17 -30 34 -30 38 0 4 -30 31 -67 60 -38 28 -68 57 -68 63 0 11 72 49 237
127 29 14 55 25 58 24 3 -1 7 -31 8 -65z m3653 44 c-12 -20 -14 -14 -5 12 4 9
9 14 11 11 3 -2 0 -13 -6 -23z m-6247 -98 c11 -8 15 -15 9 -15 -19 0 -43 12
-43 21 0 13 12 11 34 -6z m56 -15 c-12 -8 -9 -10 13 -10 16 0 35 -7 43 -15 18
-17 12 -19 -14 -6 -9 6 -30 13 -46 16 -23 5 -27 8 -15 16 7 5 19 9 24 9 6 0 3
-5 -5 -10z m1777 -17 c-28 -7 71 -53 103 -48 14 3 19 2 13 -1 -7 -3 -13 -10
-13 -15 0 -6 7 -6 18 -1 9 5 28 6 41 3 20 -5 12 -12 -55 -43 -43 -21 -81 -34
-84 -30 -3 4 -43 7 -90 7 -83 0 -260 31 -260 45 0 12 71 43 96 43 13 0 21 3
19 8 -3 4 21 13 52 19 32 7 63 14 68 15 6 2 33 3 60 3 28 0 42 -2 32 -5z m460
-49 c66 -50 148 -130 189 -185 43 -59 44 -94 2 -179 -40 -82 -37 -79 -56 -55
-10 11 -35 35 -57 54 -22 18 -71 64 -110 100 -98 93 -123 111 -159 111 l-31 0
42 -19 c25 -12 96 -73 178 -154 l137 -135 -7 -43 c-10 -58 -10 -59 -53 -57
-42 1 -83 19 -128 57 -122 102 -126 104 -222 89 -37 -5 -91 -13 -120 -17 -58
-9 -86 -26 -63 -40 26 -16 -6 -20 -61 -7 -50 12 -56 11 -50 -3 5 -14 4 -14
-10 -1 -9 8 -14 18 -11 23 2 4 -3 7 -11 7 -10 0 -15 8 -13 23 1 16 -3 22 -16
21 -14 -2 -15 1 -6 12 7 8 9 17 6 20 -8 9 46 114 79 153 36 44 132 104 299
189 86 45 152 72 172 72 21 0 48 -12 80 -36z m-2114 19 c-7 -2 -19 -2 -25 0
-7 3 -2 5 12 5 14 0 19 -2 13 -5z m57 3 c0 -2 -9 -6 -20 -9 -11 -3 -18 -1 -14
4 5 9 34 13 34 5z m64 -21 c-10 -8 -23 -14 -29 -15 -5 0 -3 5 5 11 11 7 4 8
-25 5 -31 -4 -34 -4 -15 3 14 5 38 9 54 10 28 1 29 0 10 -14z m43 -21 c-3 -3
-12 -4 -19 -1 -8 3 -5 6 6 6 11 1 17 -2 13 -5z m73 -14 c0 -5 8 -10 18 -11 9
0 12 -3 6 -5 -6 -2 -26 2 -45 10 -34 15 -34 15 -6 16 15 0 27 -4 27 -10z m73
-27 c-7 -2 -19 -2 -25 0 -7 3 -2 5 12 5 14 0 19 -2 13 -5z m267 -3 c0 -5 -2
-10 -4 -10 -3 0 -8 5 -11 10 -3 6 -1 10 4 10 6 0 11 -4 11 -10z m-121 -31 c28
-6 51 -15 51 -20 0 -5 -9 -5 -22 0 -13 5 -44 15 -70 21 -27 7 -48 17 -48 22 0
5 9 4 19 -2 11 -5 42 -15 70 -21z m79 -14 c-3 -3 -9 2 -12 12 -6 14 -5 15 5 6
7 -7 10 -15 7 -18z m29 -17 c-3 -8 -6 -5 -6 6 -1 11 2 17 5 13 3 -3 4 -12 1
-19z m1793 -48 c0 -5 -5 -10 -11 -10 -5 0 -7 5 -4 10 3 6 8 10 11 10 2 0 4 -4
4 -10z m-655 -295 c32 -11 35 -14 15 -14 -14 0 -34 6 -44 14 -24 18 -21 18 29
0z m-2223 -34 c22 -26 55 -29 383 -36 438 -9 427 -22 -18 -24 l-388 -1 -151
-60 c-84 -33 -161 -61 -173 -61 -13 -1 -10 -4 10 -8 17 -4 172 -6 345 -4 1005
9 1164 13 1174 24 8 9 5 10 -14 7 -14 -3 -50 -2 -80 2 l-55 7 63 2 c58 1 99
13 112 31 8 12 53 15 69 6 10 -7 12 -6 6 4 -6 10 -4 12 9 7 10 -4 39 -7 64 -7
l47 -1 -56 -53 -56 -53 -498 -6 c-740 -10 -1585 -9 -1585 3 0 9 62 30 92 30
17 0 449 138 573 183 85 31 106 33 127 8z m25 -82 c-14 -8 -22 -8 -30 0 -8 8
-3 11 19 11 25 -1 27 -2 11 -11z m63 -3 c-23 -22 -230 -103 -230 -90 0 8 78
43 130 58 30 9 66 23 80 31 32 18 38 19 20 1z m45 4 c-8 -12 -3 -13 29 0 43
16 29 3 -33 -31 -33 -18 -58 -37 -55 -41 11 -17 51 -6 89 24 l40 32 -34 -37
c-34 -36 -34 -36 -117 -35 -46 0 -86 3 -89 7 -2 4 15 7 40 7 31 -1 50 5 67 20
13 12 32 24 43 29 13 5 15 9 7 12 -13 5 -7 23 9 23 6 0 7 -4 4 -10z m185 2 c0
-11 -56 -43 -63 -36 -3 3 -17 -2 -32 -12 -27 -18 -24 -29 10 -37 16 -4 15 -5
-5 -5 -14 0 -34 3 -45 7 -17 7 -13 12 30 44 29 21 57 34 67 31 9 -3 19 0 23 6
7 12 15 13 15 2z m80 3 c0 -3 -17 -16 -37 -29 -21 -13 -48 -34 -61 -45 -21
-21 -23 -21 -45 -5 -16 12 -17 15 -4 10 12 -4 38 8 75 34 54 37 72 46 72 35z
m80 -30 c-48 -31 -100 -49 -74 -26 28 26 91 61 109 61 14 0 3 -11 -35 -35z
m110 6 c-19 -16 -41 -26 -49 -23 -9 3 -12 1 -7 -7 4 -7 -2 -20 -16 -31 -25
-21 -58 -26 -58 -10 0 6 4 10 8 10 5 0 22 12 38 26 30 26 92 63 109 64 5 0 -6
-13 -25 -29z m120 24 c0 -9 -141 -97 -146 -92 -3 2 19 18 48 35 29 17 62 37
73 46 22 17 25 18 25 11z m-740 -11 c0 -3 -16 -12 -36 -20 -20 -8 -63 -28 -97
-44 -33 -17 -68 -30 -76 -30 -23 1 7 17 114 62 101 42 95 40 95 32z m470 2 c0
-7 -112 -86 -122 -86 -4 0 -8 5 -8 10 0 6 6 10 14 10 7 0 33 16 57 35 41 32
59 42 59 31z m310 -32 c-33 -30 -43 -34 -55 -24 -11 9 -19 8 -37 -4 -25 -18
-17 -22 12 -6 13 7 21 7 25 0 8 -13 -17 -22 -52 -18 -28 3 -27 3 21 37 27 19
46 29 42 23 -4 -7 1 -10 14 -9 22 1 28 16 8 18 -14 1 29 16 50 18 6 1 -6 -15
-28 -35z m140 27 c-18 -10 -95 -23 -86 -14 3 3 23 9 43 13 53 11 60 11 43 1z
m54 -41 c-38 -38 -64 -51 -64 -30 0 6 4 10 9 10 4 0 24 13 42 30 50 43 59 37
13 -10z m75 37 c-2 -1 -15 -11 -29 -22 l-25 -20 19 23 c11 12 24 22 29 22 6 0
8 -1 6 -3z m55 -22 c-10 -8 -26 -14 -34 -14 -9 0 -4 6 10 14 33 19 49 19 24 0z
m-298 -30 c-3 -8 -2 -15 3 -15 5 0 25 7 44 15 50 21 65 19 39 -5 -16 -15 -34
-20 -78 -19 l-57 2 24 18 c29 23 33 23 25 4z m-326 -10 c-27 -15 -95 -21 -86
-7 3 5 19 9 37 10 17 0 34 3 37 6 3 3 12 6 21 6 11 -1 7 -6 -9 -15z m6380 -20
c456 -38 706 -63 810 -83 94 -17 90 -17 -760 -22 -470 -3 -859 -3 -863 1 -4 3
45 9 110 13 65 4 129 9 143 11 14 1 103 3 198 4 185 1 231 15 80 25 -51 3
-142 9 -201 13 l-109 8 44 32 43 33 105 -6 c58 -2 238 -16 400 -29z m-4580 10
c30 -3 131 -10 224 -15 93 -5 174 -14 180 -20 19 -19 -111 -11 -424 26 -68 8
-127 18 -130 21 -3 3 18 3 45 -1 28 -3 75 -8 105 -11z m-1247 -2 c-13 -2 -35
-2 -50 0 -16 2 -5 4 22 4 28 0 40 -2 28 -4z m-534 -77 c-2 -2 -289 -7 -636
-11 -453 -5 -633 -4 -633 4 0 8 186 11 637 11 350 0 634 -2 632 -4z m54 -3
c-7 -2 -21 -2 -30 0 -10 3 -4 5 12 5 17 0 24 -2 18 -5z m90 0 c-13 -2 -33 -2
-45 0 -13 2 -3 4 22 4 25 0 35 -2 23 -4z m1590 -60 c-40 -2 -106 -2 -145 0
-40 1 -8 3 72 3 80 0 112 -2 73 -3z m-3203 -430 c0 -17 -19 -35 -29 -29 -18
12 -12 36 9 36 11 0 20 -3 20 -7z"/>
<path d="M4255 7519 c-22 -5 -59 -11 -83 -13 -49 -5 -159 -54 -210 -93 -33
-25 -92 -98 -92 -115 0 -11 34 -10 46 1 22 22 170 51 258 51 119 0 191 -12
359 -60 77 -22 151 -40 166 -40 55 0 79 43 84 154 2 45 0 51 -29 67 -71 43
-385 73 -499 48z"/>
<path d="M4515 7120 c3 -5 11 -10 16 -10 6 0 7 5 4 10 -3 6 -11 10 -16 10 -6
0 -7 -4 -4 -10z"/>
<path d="M3078 7035 c-34 -19 -53 -55 -62 -115 l-7 -45 20 43 c19 41 37 60 24
25 -6 -15 -1 -14 31 5 62 37 86 30 141 -38 16 -19 16 -22 3 -11 -27 20 -21 1
8 -30 l26 -27 -43 -22 c-90 -45 -124 -96 -114 -169 3 -25 13 -57 20 -71 14
-25 14 -25 16 15 1 22 3 31 6 20 9 -36 21 -38 20 -4 -2 24 3 34 15 37 14 3 15
-2 7 -35 -5 -21 -8 -45 -8 -53 1 -8 7 8 13 35 9 36 17 50 29 49 9 -1 17 2 17
8 0 5 5 6 11 2 6 -3 15 0 20 7 7 11 9 11 9 1 0 -7 -6 -15 -14 -18 -11 -4 -11
-10 -2 -29 l11 -25 6 28 c6 24 7 24 8 -10 0 -20 -3 -48 -9 -62 -5 -14 -11 -59
-13 -100 -3 -59 -1 -73 10 -69 16 6 17 -19 1 -35 -7 -7 -8 -12 -2 -12 19 0 32
35 19 53 -6 9 -16 13 -20 9 -5 -4 -5 -1 0 7 14 24 48 -25 35 -50 -6 -10 -9
-19 -8 -20 21 -6 78 -4 78 3 0 5 -16 38 -35 72 -40 72 -43 93 -15 129 28 36
50 102 50 151 0 99 -79 300 -134 339 -38 27 -129 34 -168 12z m166 -341 c9 -3
16 -11 16 -17 0 -7 -4 -7 -12 1 -17 17 -65 15 -72 -3 -3 -8 -11 -15 -17 -15
-8 0 -9 4 0 13 6 8 8 17 4 20 -8 9 60 9 81 1z m-9 -25 c4 -5 -1 -9 -9 -9 -9 0
-19 0 -23 -1 -4 0 -9 3 -10 8 -4 12 35 14 42 2z"/>
<path d="M3426 6577 c3 -10 9 -15 12 -12 3 3 0 11 -7 18 -10 9 -11 8 -5 -6z"/>
<path d="M3432 6520 c0 -14 2 -19 5 -12 2 6 2 18 0 25 -3 6 -5 1 -5 -13z"/>
<path d="M3222 6500 c0 -14 2 -19 5 -12 2 6 2 18 0 25 -3 6 -5 1 -5 -13z"/>
<path d="M3196 6495 c-3 -8 -1 -15 4 -15 6 0 10 7 10 15 0 8 -2 15 -4 15 -2 0
-6 -7 -10 -15z"/>
<path d="M3241 6494 c0 -11 3 -14 6 -6 3 7 2 16 -1 19 -3 4 -6 -2 -5 -13z"/>
<path d="M3242 6440 c0 -14 2 -19 5 -12 2 6 2 18 0 25 -3 6 -5 1 -5 -13z"/>
<path d="M3218 6278 c5 -5 16 -8 23 -6 8 3 3 7 -10 11 -17 4 -21 3 -13 -5z"/>
<path d="M3373 6283 c9 -2 23 -2 30 0 6 3 -1 5 -18 5 -16 0 -22 -2 -12 -5z"/>
<path d="M5250 6266 c0 -2 7 -23 15 -47 9 -23 12 -46 8 -50 -5 -4 -35 -24 -67
-43 -53 -32 -68 -36 -126 -36 -58 0 -78 5 -148 40 -85 42 -102 47 -102 29 0
-7 -9 -9 -21 -6 -27 7 -49 -1 -49 -19 0 -18 -16 -18 -23 0 -8 21 13 36 52 37
l36 1 -30 9 c-21 6 -37 5 -54 -3 -20 -11 -25 -10 -37 7 -8 10 -14 25 -14 33 0
7 -4 11 -8 8 -5 -3 -7 -19 -4 -35 4 -27 48 -77 107 -121 17 -12 16 -10 -2 11
-28 31 -29 39 -4 39 24 0 36 -16 19 -24 -7 -3 -1 -3 13 0 18 4 34 -2 56 -20
33 -28 83 -42 83 -23 0 8 3 8 8 2 12 -17 69 -45 90 -45 11 0 36 7 56 15 20 9
41 13 46 10 6 -3 8 0 5 7 -3 7 9 22 27 33 48 29 55 30 38 9 -14 -19 -14 -19 8
0 23 20 30 32 10 20 -7 -4 -8 -3 -4 4 4 6 13 9 20 6 16 -6 46 32 46 59 0 18
-37 97 -45 97 -3 0 -5 -2 -5 -4z m-360 -130 c0 -2 -9 -2 -20 1 -11 3 -20 9
-20 15 0 5 9 4 20 -2 11 -6 20 -12 20 -14z m31 -23 c13 -16 12 -17 -3 -4 -10
7 -18 15 -18 17 0 8 8 3 21 -13z m34 -22 c-3 -6 -11 -11 -16 -11 -5 0 -4 6 3
14 14 16 24 13 13 -3z m135 -37 c-17 -19 -50 -37 -50 -27 0 7 48 42 59 43 2 0
-2 -7 -9 -16z"/>
<path d="M4930 6031 c-20 -6 -22 -8 -8 -13 9 -4 22 -1 28 8 7 8 11 14 9 13 -2
-1 -15 -4 -29 -8z"/>
<path d="M4299 6005 c-15 -8 -29 -22 -33 -31 -5 -13 -2 -15 18 -10 20 5 32 -2
66 -41 59 -67 131 -119 235 -169 105 -52 192 -73 330 -81 118 -7 192 9 300 62
98 47 158 96 204 163 21 32 46 64 55 71 22 19 20 31 -6 31 -12 0 -36 -15 -53
-34 -34 -37 -70 -50 -202 -72 -252 -40 -532 -20 -788 57 -88 27 -103 38 -79
56 17 12 17 13 -2 13 -10 -1 -31 -7 -45 -15z m348 -136 c204 -36 486 -26 682
25 28 7 51 10 51 6 0 -4 -26 -32 -58 -62 -111 -106 -254 -155 -412 -143 -96 7
-204 29 -270 55 -84 33 -280 165 -280 189 0 4 38 -5 84 -21 46 -15 137 -37
203 -49z"/>
<path d="M3810 5746 c0 -2 7 -9 15 -16 13 -11 14 -10 9 4 -5 14 -24 23 -24 12z"/>
<path d="M3790 5738 c0 -3 14 -21 31 -39 17 -19 26 -25 21 -14 -10 20 -52 63
-52 53z"/>
<path d="M4735 5576 c11 -8 31 -15 45 -15 30 0 11 12 -35 23 -29 7 -29 7 -10
-8z"/>
<path d="M4925 5570 c-66 -3 -111 -8 -100 -11 29 -8 201 0 227 11 13 5 16 8 8
7 -8 0 -69 -3 -135 -7z"/>
<path d="M4030 5509 c0 -5 5 -7 10 -4 6 3 10 8 10 11 0 2 -4 4 -10 4 -5 0 -10
-5 -10 -11z"/>
<path d="M4835 5500 c7 -12 82 -12 110 0 14 6 -1 9 -48 9 -43 1 -66 -3 -62 -9z"/>
<path d="M4188 5423 c7 -3 16 -2 19 1 4 3 -2 6 -13 5 -11 0 -14 -3 -6 -6z"/>
<path d="M4306 5366 c3 -8 13 -17 22 -21 13 -5 13 -2 -3 15 -21 24 -26 25 -19
6z"/>
<path d="M3153 5842 c-8 -5 -9 -13 -3 -22 8 -13 10 -12 10 3 0 14 5 17 23 12
17 -5 19 -4 7 4 -18 13 -21 13 -37 3z"/>
<path d="M3200 5801 c0 -5 5 -13 10 -16 6 -3 10 -2 10 4 0 5 -4 13 -10 16 -5
3 -10 2 -10 -4z"/>
<path d="M3301 5715 c0 -5 6 -21 14 -35 8 -14 14 -20 14 -15 0 6 -6 21 -14 35
-8 14 -14 21 -14 15z"/>
<path d="M3391 5515 c0 -5 6 -21 14 -35 8 -14 14 -20 14 -15 0 6 -6 21 -14 35
-8 14 -14 21 -14 15z"/>
<path d="M3487 5297 c-3 -8 1 -14 8 -14 7 0 11 6 8 14 -3 7 -6 13 -8 13 -2 0
-5 -6 -8 -13z"/>
<path d="M3390 5240 c0 -5 5 -10 11 -10 5 0 7 5 4 10 -3 6 -8 10 -11 10 -2 0
-4 -4 -4 -10z"/>
<path d="M3402 5180 c11 -18 13 -18 17 -4 2 14 5 15 13 3 8 -12 9 -11 5 1 -2
8 -14 16 -26 18 -20 3 -21 2 -9 -18z"/>
<path d="M3754 5659 c4 -13 8 -31 10 -39 2 -8 6 -14 9 -12 4 1 12 2 19 2 6 0
3 7 -8 15 -18 15 -18 15 0 8 13 -4 17 -3 12 5 -4 7 -14 12 -22 12 -8 0 -13 4
-9 9 3 5 0 13 -6 17 -9 5 -10 0 -5 -17z"/>
<path d="M3655 5350 c3 -5 8 -10 11 -10 2 0 4 5 4 10 0 6 -5 10 -11 10 -5 0
-7 -4 -4 -10z"/>
<path d="M3635 5189 c-4 -6 -5 -12 -2 -15 2 -3 7 2 10 11 7 17 1 20 -8 4z"/>
<path d="M3660 5154 c6 -14 8 -29 6 -33 -3 -4 1 -8 7 -8 10 0 11 8 3 34 -6 18
-14 33 -18 33 -4 0 -3 -12 2 -26z"/>
<path d="M5400 5301 c0 -5 7 -12 16 -15 24 -9 27 -7 10 9 -17 17 -26 19 -26 6z"/>
<path d="M5367 5033 c-4 -3 -7 -11 -7 -17 0 -6 5 -5 12 2 6 6 9 14 7 17 -3 3
-9 2 -12 -2z"/>
<path d="M5877 4920 c3 -11 9 -20 15 -20 5 0 4 9 -2 20 -6 11 -12 20 -14 20
-2 0 -2 -9 1 -20z"/>
<path d="M5887 4869 c4 -13 8 -18 11 -10 2 7 -1 18 -6 23 -8 8 -9 4 -5 -13z"/>
<path d="M4510 4449 c0 -5 5 -7 10 -4 6 3 10 8 10 11 0 2 -4 4 -10 4 -5 0 -10
-5 -10 -11z"/>
<path d="M2090 3006 c0 -2 7 -7 16 -10 8 -3 12 -2 9 4 -6 10 -25 14 -25 6z"/>
<path d="M2260 2900 c8 -5 20 -10 25 -10 6 0 3 5 -5 10 -8 5 -19 10 -25 10 -5
0 -3 -5 5 -10z"/>
<path d="M2323 2865 c0 -7 6 -11 14 -8 7 3 13 6 13 8 0 2 -6 5 -13 8 -8 3 -14
-1 -14 -8z"/>
<path d="M3601 3894 c0 -11 3 -14 6 -6 3 7 2 16 -1 19 -3 4 -6 -2 -5 -13z"/>
<path d="M8136 3333 c-6 -14 -5 -15 5 -6 7 7 10 15 7 18 -3 3 -9 -2 -12 -12z"/>
<path d="M8061 3258 c-1 -10 6 -18 14 -18 8 0 15 5 15 11 0 5 -4 8 -9 5 -5 -4
-12 0 -14 6 -3 8 -6 6 -6 -4z"/>
<path d="M8104 3255 c4 -24 16 -30 16 -7 0 12 -4 22 -9 22 -5 0 -8 -7 -7 -15z"/>
<path d="M7440 3126 c0 -2 7 -7 16 -10 8 -3 12 -2 9 4 -6 10 -25 14 -25 6z"/>
<path d="M7385 3100 c3 -5 11 -10 16 -10 6 0 7 5 4 10 -3 6 -11 10 -16 10 -6
0 -7 -4 -4 -10z"/>
<path d="M7201 3004 c0 -11 3 -14 6 -6 3 7 2 16 -1 19 -3 4 -6 -2 -5 -13z"/>
<path d="M5050 2955 c0 -8 5 -15 11 -15 5 0 8 4 5 9 -4 5 0 12 6 14 8 3 6 6
-4 6 -10 1 -18 -6 -18 -14z"/>
<path d="M6843 2883 c9 -2 23 -2 30 0 6 3 -1 5 -18 5 -16 0 -22 -2 -12 -5z"/>
<path d="M5275 2810 c-3 -5 1 -10 10 -10 9 0 13 5 10 10 -3 6 -8 10 -10 10 -2
0 -7 -4 -10 -10z"/>
<path d="M1726 2704 c-11 -28 -6 -39 9 -20 8 11 15 23 15 28 0 14 -18 9 -24
-8z"/>
<path d="M2258 2543 c6 -2 12 -9 12 -15 0 -6 -7 -8 -15 -4 -8 3 -15 1 -15 -4
0 -12 20 -13 39 -1 17 11 6 31 -17 30 -11 0 -12 -3 -4 -6z"/>
<path d="M2108 2523 c7 -3 16 -2 19 1 4 3 -2 6 -13 5 -11 0 -14 -3 -6 -6z"/>
<path d="M1878 2513 c7 -3 16 -2 19 1 4 3 -2 6 -13 5 -11 0 -14 -3 -6 -6z"/>
<path d="M1826 2501 c-19 -7 -19 -8 0 -13 13 -3 21 0 21 8 0 8 -1 14 -1 13 -1
0 -10 -4 -20 -8z"/>
<path d="M1928 2503 c7 -3 16 -2 19 1 4 3 -2 6 -13 5 -11 0 -14 -3 -6 -6z"/>
<path d="M1928 2483 c6 -2 18 -2 25 0 6 3 1 5 -13 5 -14 0 -19 -2 -12 -5z"/>
<path d="M2948 2393 c7 -3 16 -2 19 1 4 3 -2 6 -13 5 -11 0 -14 -3 -6 -6z"/>
<path d="M1760 2335 c0 -11 11 -15 40 -15 29 0 40 4 40 15 0 11 -11 15 -40 15
-29 0 -40 -4 -40 -15z"/>
<path d="M2495 2160 c-4 -6 -11 -7 -17 -4 -7 4 -8 2 -4 -5 6 -9 11 -9 22 0 14
11 18 19 10 19 -3 0 -8 -5 -11 -10z"/>
<path d="M2410 2110 c0 -5 5 -10 10 -10 6 0 10 5 10 10 0 6 -4 10 -10 10 -5 0
-10 -4 -10 -10z"/>
<path d="M2400 2083 c0 -5 -11 -16 -25 -23 -17 -9 -25 -21 -24 -39 l1 -26 11
28 c6 15 16 27 23 27 13 0 28 30 19 38 -3 3 -5 1 -5 -5z"/>
<path d="M3071 2306 c11 -9 69 -15 64 -6 -3 6 -20 10 -37 10 -17 0 -29 -2 -27
-4z"/>
<path d="M2668 2187 c-24 -20 -25 -23 -9 -23 11 0 18 3 15 7 -7 11 24 31 37
23 8 -4 9 -3 5 4 -10 16 -17 15 -48 -11z"/>
<path d="M3262 2188 c-9 -12 -8 -14 8 -13 11 1 23 5 27 10 5 4 3 5 -4 2 -6 -4
-13 -2 -15 4 -2 7 -8 6 -16 -3z"/>
<path d="M2690 2176 c0 -2 8 -10 18 -17 15 -13 16 -12 3 4 -13 16 -21 21 -21
13z"/>
<path d="M3548 1653 c6 -2 18 -2 25 0 6 3 1 5 -13 5 -14 0 -19 -2 -12 -5z"/>
<path d="M3825 1540 c10 -11 20 -20 23 -20 3 0 -3 9 -13 20 -10 11 -20 20 -23
20 -3 0 3 -9 13 -20z"/>
</g>
</svg>
